{
	"asset":{
		"generator":"Khronos glTF Blender I/O v4.2.60",
		"version":"2.0"
	},
	"scene":0,
	"scenes":[
		{
			"name":"Scene",
			"nodes":[
				4
			]
		}
	],
	"nodes":[
		{
			"mesh":0,
			"name":"Boxing Glove.002_Glove Material_0",
			"scale":[
				0.000770999991800636,
				0.000770999991800636,
				0.000770999991800636
			],
			"translation":[
				-21.887304306030273,
				-481.9554443359375,
				-445.9854431152344
			]
		},
		{
			"children":[
				0
			],
			"name":"Boxing Glove.002",
			"translation":[
				21.88730239868164,
				481.9554443359375,
				445.9854736328125
			]
		},
		{
			"children":[
				1
			],
			"name":"RootNode"
		},
		{
			"children":[
				2
			],
			"name":"Boxing Gloves - Left.fbx",
			"rotation":[
				0.70710688829422,
				0,
				0,
				0.7071066498756409
			]
		},
		{
			"children":[
				3
			],
			"name":"Sketchfab_model",
			"rotation":[
				-0.70710688829422,
				0,
				0,
				0.7071066498756409
			]
		}
	],
	"materials":[
		{
			"doubleSided":true,
			"name":"Glove_Material",
			"pbrMetallicRoughness":{
				"baseColorTexture":{
					"index":0
				},
				"metallicFactor":0,
				"roughnessFactor":0.7885257601737976
			}
		}
	],
	"meshes":[
		{
			"name":"Boxing Glove.002_Glove Material_0",
			"primitives":[
				{
					"attributes":{
						"POSITION":0,
						"NORMAL":1,
						"TEXCOORD_0":2
					},
					"indices":3,
					"material":0
				}
			]
		}
	],
	"textures":[
		{
			"sampler":0,
			"source":0
		}
	],
	"images":[
		{
			"mimeType":"image/png",
			"name":"Glove_Material_baseColor",
			"uri":"Glove_Material_baseColor.png"
		}
	],
	"accessors":[
		{
			"bufferView":0,
			"componentType":5126,
			"count":8382,
			"max":[
				301.2139892578125,
				503.37811279296875,
				350.47698974609375
			],
			"min":[
				-301.2139892578125,
				-503.3781433105469,
				-350.47698974609375
			],
			"type":"VEC3"
		},
		{
			"bufferView":1,
			"componentType":5126,
			"count":8382,
			"type":"VEC3"
		},
		{
			"bufferView":2,
			"componentType":5126,
			"count":8382,
			"type":"VEC2"
		},
		{
			"bufferView":3,
			"componentType":5123,
			"count":12192,
			"type":"SCALAR"
		}
	],
	"bufferViews":[
		{
			"buffer":0,
			"byteLength":100584,
			"byteOffset":0,
			"target":34962
		},
		{
			"buffer":0,
			"byteLength":100584,
			"byteOffset":100584,
			"target":34962
		},
		{
			"buffer":0,
			"byteLength":67056,
			"byteOffset":201168,
			"target":34962
		},
		{
			"buffer":0,
			"byteLength":24384,
			"byteOffset":268224,
			"target":34963
		}
	],
	"samplers":[
		{
			"magFilter":9729,
			"minFilter":9987
		}
	],
	"buffers":[
		{
			"byteLength":292608,
			"uri":"gloveLeft.bin"
		}
	]
}
