{
  "asset": {
    "generator": "Khronos glTF Blender I/O v4.2.60",
    "version": "2.0"
  },
  "scene": 0,
  "scenes": [
    {
      "name": "Scene",
      "nodes": [8]
    }
  ],
  "nodes": [
    {
      "mesh": 0,
      "name": "Paper_Paper Material_0"
    },
    {
      "children": [0],
      "name": "Paper",
      "rotation": [-0.70710688829422, 0, 0, 0.7071066498756409],
      "scale": [100.00000762939453, 99.99999237060547, 99.99999237060547]
    },
    {
      "mesh": 1,
      "name": "Tape L_Material.001_0"
    },
    {
      "children": [2],
      "name": "Tape L",
      "rotation": [-0.6544710397720337, -0.2677081227302551, -0.2677081227302551, 0.6544710397720337],
      "scale": [31.497835159301758, 8.466333389282227, 100.00000762939453],
      "translation": [-146.34852600097656, 0.7530859708786011, 109.99524688720703]
    },
    {
      "mesh": 2,
      "name": "Tape R_Material.002_0"
    },
    {
      "children": [4],
      "name": "Tape R",
      "rotation": [-0.3276412785053253, -0.6266188621520996, -0.6266189217567444, 0.3276413679122925],
      "scale": [31.497838973999023, 8.466333389282227, 100.00001525878906],
      "translation": [-147.8984832763672, 0.7530859112739563, -105.37840270996094]
    },
    {
      "children": [1, 3, 5],
      "name": "RootNode"
    },
    {
      "children": [6],
      "name": "da03915a871f41d8bf8134affa9a6448.fbx",
      "rotation": [0.70710688829422, 0, 0, 0.7071066498756409],
      "scale": [0.009999999776482582, 0.010000000707805157, 0.010000000707805157]
    },
    {
      "children": [7],
      "name": "Sketchfab_model",
      "rotation": [0, 0, -0.7071068286895752, 0.7071067094802856]
    }
  ],
  "materials": [
    {
      "doubleSided": true,
      "name": "Material.003",
      "pbrMetallicRoughness": {
        "baseColorTexture": {
          "index": 0
        },
        "metallicFactor": 0,
        "roughnessFactor": 0.5
      }
    },
    {
      "doubleSided": true,
      "name": "Material.001",
      "pbrMetallicRoughness": {
        "baseColorFactor": [0.4685298800468445, 0.4107401967048645, 0.21400900185108185, 1],
        "metallicFactor": 0,
        "roughnessFactor": 0.9268283843994141
      }
    },
    {
      "doubleSided": true,
      "name": "Material.002",
      "pbrMetallicRoughness": {
        "baseColorFactor": [0.4677838087081909, 0.4125426113605499, 0.21223075687885284, 1],
        "metallicFactor": 0,
        "roughnessFactor": 0.9268283843994141
      }
    }
  ],
  "meshes": [
    {
      "name": "Paper_Paper Material_0",
      "primitives": [
        {
          "attributes": {
            "POSITION": 0,
            "NORMAL": 1,
            "TEXCOORD_0": 2
          },
          "indices": 3,
          "material": 0
        }
      ]
    },
    {
      "name": "Tape L_Material.001_0",
      "primitives": [
        {
          "attributes": {
            "POSITION": 4,
            "NORMAL": 5,
            "TEXCOORD_0": 6
          },
          "indices": 7,
          "material": 1
        }
      ]
    },
    {
      "name": "Tape R_Material.002_0",
      "primitives": [
        {
          "attributes": {
            "POSITION": 8,
            "NORMAL": 9,
            "TEXCOORD_0": 10
          },
          "indices": 7,
          "material": 2
        }
      ]
    }
  ],
  "textures": [
    {
      "sampler": 0,
      "source": 0
    }
  ],
  "images": [
    {
      "mimeType": "image/jpeg",
      "name": "boxer",
      "uri": "boxer.jpg"
    }
  ],
  "accessors": [
    {
      "bufferView": 0,
      "componentType": 5126,
      "count": 248,
      "max": [1.5849556922912598, 1.184154987335205, 0.22684341669082642],
      "min": [-1.5889450311660767, -1.1801097393035889, 0],
      "type": "VEC3"
    },
    {
      "bufferView": 1,
      "componentType": 5126,
      "count": 248,
      "type": "VEC3"
    },
    {
      "bufferView": 2,
      "componentType": 5126,
      "count": 248,
      "type": "VEC2"
    },
    {
      "bufferView": 3,
      "componentType": 5123,
      "count": 600,
      "type": "SCALAR"
    },
    {
      "bufferView": 4,
      "componentType": 5126,
      "count": 142,
      "max": [1.0981355905532837, 1, 0],
      "min": [-1.1174122095108032, -1, 0],
      "type": "VEC3"
    },
    {
      "bufferView": 5,
      "componentType": 5126,
      "count": 142,
      "type": "VEC3"
    },
    {
      "bufferView": 6,
      "componentType": 5126,
      "count": 142,
      "type": "VEC2"
    },
    {
      "bufferView": 7,
      "componentType": 5123,
      "count": 600,
      "type": "SCALAR"
    },
    {
      "bufferView": 8,
      "componentType": 5126,
      "count": 142,
      "max": [1.0981355905532837, 1, 0],
      "min": [-1.1174122095108032, -1, 0],
      "type": "VEC3"
    },
    {
      "bufferView": 9,
      "componentType": 5126,
      "count": 142,
      "type": "VEC3"
    },
    {
      "bufferView": 10,
      "componentType": 5126,
      "count": 142,
      "type": "VEC2"
    }
  ],
  "bufferViews": [
    {
      "buffer": 0,
      "byteLength": 2976,
      "byteOffset": 0,
      "target": 34962
    },
    {
      "buffer": 0,
      "byteLength": 2976,
      "byteOffset": 2976,
      "target": 34962
    },
    {
      "buffer": 0,
      "byteLength": 1984,
      "byteOffset": 5952,
      "target": 34962
    },
    {
      "buffer": 0,
      "byteLength": 1200,
      "byteOffset": 7936,
      "target": 34963
    },
    {
      "buffer": 0,
      "byteLength": 1704,
      "byteOffset": 9136,
      "target": 34962
    },
    {
      "buffer": 0,
      "byteLength": 1704,
      "byteOffset": 10840,
      "target": 34962
    },
    {
      "buffer": 0,
      "byteLength": 1136,
      "byteOffset": 12544,
      "target": 34962
    },
    {
      "buffer": 0,
      "byteLength": 1200,
      "byteOffset": 13680,
      "target": 34963
    },
    {
      "buffer": 0,
      "byteLength": 1704,
      "byteOffset": 14880,
      "target": 34962
    },
    {
      "buffer": 0,
      "byteLength": 1704,
      "byteOffset": 16584,
      "target": 34962
    },
    {
      "buffer": 0,
      "byteLength": 1136,
      "byteOffset": 18288,
      "target": 34962
    }
  ],
  "samplers": [
    {
      "magFilter": 9729,
      "minFilter": 9987
    }
  ],
  "buffers": [
    {
      "byteLength": 19424,
      "uri": "poster.bin"
    }
  ]
}
