{
	"asset":{
		"generator":"Khronos glTF Blender I/O v4.2.60",
		"version":"2.0"
	},
	"scene":0,
	"scenes":[
		{
			"name":"Scene",
			"nodes":[
				6
			]
		}
	],
	"nodes":[
		{
			"mesh":0,
			"name":"Object_4"
		},
		{
			"mesh":1,
			"name":"Object_5"
		},
		{
			"mesh":2,
			"name":"Object_6",
			"rotation":[
				0,
				-0.2019157111644745,
				0,
				0.9794028997421265
			]
		},
		{
			"children":[
				0,
				1,
				2
			],
			"name":"node-0_0"
		},
		{
			"children":[
				3
			],
			"name":"GLTF_SceneRootNode",
			"rotation":[
				0.70710688829422,
				0,
				0,
				0.7071066498756409
			]
		},
		{
			"children":[
				4
			],
			"name":"root"
		},
		{
			"children":[
				5
			],
			"name":"Sketchfab_model",
			"rotation":[
				-0.70710688829422,
				0,
				0,
				0.7071066498756409
			]
		}
	],
	"materials":[
		{
			"doubleSided":true,
			"name":"lambert4SG",
			"pbrMetallicRoughness":{
				"baseColorFactor":[
					0.6899999976158142,
					0.6899999976158142,
					0.6899999976158142,
					1
				],
				"metallicFactor":0,
				"roughnessFactor":0.9699479937553406
			}
		},
		{
			"doubleSided":true,
			"name":"lambert3SG",
			"pbrMetallicRoughness":{
				"baseColorFactor":[
					0.019999999552965164,
					0.019999999552965164,
					0.019999999552965164,
					1
				],
				"metallicFactor":0,
				"roughnessFactor":0.9699479937553406
			}
		},
		{
			"doubleSided":true,
			"name":"lambert2SG",
			"pbrMetallicRoughness":{
				"baseColorFactor":[
					0.5099999904632568,
					0.004554226528853178,
					0.0047846087254583836,
					1
				],
				"metallicFactor":0,
				"roughnessFactor":0.9699479937553406
			}
		}
	],
	"meshes":[
		{
			"name":"Object_0",
			"primitives":[
				{
					"attributes":{
						"POSITION":0,
						"NORMAL":1,
						"TEXCOORD_0":2
					},
					"indices":3,
					"material":0
				}
			]
		},
		{
			"name":"Object_1",
			"primitives":[
				{
					"attributes":{
						"POSITION":4,
						"NORMAL":5,
						"TEXCOORD_0":6
					},
					"indices":7,
					"material":1
				}
			]
		},
		{
			"name":"Object_2",
			"primitives":[
				{
					"attributes":{
						"POSITION":8,
						"NORMAL":9,
						"TEXCOORD_0":10
					},
					"indices":11,
					"material":2
				}
			]
		}
	],
	"accessors":[
		{
			"bufferView":0,
			"componentType":5126,
			"count":384,
			"max":[
				0.08325199782848358,
				4.284436225891113,
				0.19491800665855408
			],
			"min":[
				-0.08325199782848358,
				3.872534990310669,
				-0.19491800665855408
			],
			"type":"VEC3"
		},
		{
			"bufferView":1,
			"componentType":5126,
			"count":384,
			"type":"VEC3"
		},
		{
			"bufferView":2,
			"componentType":5126,
			"count":384,
			"type":"VEC2"
		},
		{
			"bufferView":3,
			"componentType":5123,
			"count":384,
			"type":"SCALAR"
		},
		{
			"bufferView":4,
			"componentType":5126,
			"count":544,
			"max":[
				0.5007079839706421,
				4.010136127471924,
				0.49540600180625916
			],
			"min":[
				-0.5007079839706421,
				2.294816017150879,
				-0.49540600180625916
			],
			"type":"VEC3"
		},
		{
			"bufferView":5,
			"componentType":5126,
			"count":544,
			"type":"VEC3"
		},
		{
			"bufferView":6,
			"componentType":5126,
			"count":544,
			"type":"VEC2"
		},
		{
			"bufferView":7,
			"componentType":5123,
			"count":552,
			"type":"SCALAR"
		},
		{
			"bufferView":8,
			"componentType":5126,
			"count":275,
			"max":[
				0.5147449970245361,
				2.6819450855255127,
				0.5147449970245361
			],
			"min":[
				-0.5122920274734497,
				-0.4526289999485016,
				-0.5196599960327148
			],
			"type":"VEC3"
		},
		{
			"bufferView":9,
			"componentType":5126,
			"count":275,
			"type":"VEC3"
		},
		{
			"bufferView":10,
			"componentType":5126,
			"count":275,
			"type":"VEC2"
		},
		{
			"bufferView":11,
			"componentType":5123,
			"count":288,
			"type":"SCALAR"
		}
	],
	"bufferViews":[
		{
			"buffer":0,
			"byteLength":4608,
			"byteOffset":0,
			"target":34962
		},
		{
			"buffer":0,
			"byteLength":4608,
			"byteOffset":4608,
			"target":34962
		},
		{
			"buffer":0,
			"byteLength":3072,
			"byteOffset":9216,
			"target":34962
		},
		{
			"buffer":0,
			"byteLength":768,
			"byteOffset":12288,
			"target":34963
		},
		{
			"buffer":0,
			"byteLength":6528,
			"byteOffset":13056,
			"target":34962
		},
		{
			"buffer":0,
			"byteLength":6528,
			"byteOffset":19584,
			"target":34962
		},
		{
			"buffer":0,
			"byteLength":4352,
			"byteOffset":26112,
			"target":34962
		},
		{
			"buffer":0,
			"byteLength":1104,
			"byteOffset":30464,
			"target":34963
		},
		{
			"buffer":0,
			"byteLength":3300,
			"byteOffset":31568,
			"target":34962
		},
		{
			"buffer":0,
			"byteLength":3300,
			"byteOffset":34868,
			"target":34962
		},
		{
			"buffer":0,
			"byteLength":2200,
			"byteOffset":38168,
			"target":34962
		},
		{
			"buffer":0,
			"byteLength":576,
			"byteOffset":40368,
			"target":34963
		}
	],
	"buffers":[
		{
			"byteLength":40944,
			"uri":"scene.bin"
		}
	]
}
