{
	"asset":{
		"generator":"Khronos glTF Blender I/O v4.2.60",
		"version":"2.0"
	},
	"scene":0,
	"scenes":[
		{
			"name":"Scene",
			"nodes":[
				1
			]
		}
	],
	"nodes":[
		{
			"mesh":0,
			"name":"Boxing Glove.002_Glove Material_0",
			"rotation":[
				0,
				-1,
				0,
				4.371138473402425e-08
			],
			"scale":[
				0.000770999991800636,
				0.000770999991800636,
				0.000770999991800636
			],
			"translation":[
				-34.776798248291016,
				-488.19305419921875,
				-447.7684631347656
			]
		},
		{
			"children":[
				0
			],
			"name":"Boxing Glove.002",
			"translation":[
				34.80341339111328,
				488.5713195800781,
				447.7440490722656
			]
		}
	],
	"materials":[
		{
			"doubleSided":true,
			"name":"Glove_Material.001",
			"pbrMetallicRoughness":{
				"baseColorTexture":{
					"index":0
				},
				"metallicFactor":0,
				"roughnessFactor":0.7885257601737976
			}
		}
	],
	"meshes":[
		{
			"name":"Boxing Glove.002_Glove Material_0.001",
			"primitives":[
				{
					"attributes":{
						"POSITION":0,
						"NORMAL":1,
						"TEXCOORD_0":2
					},
					"indices":3,
					"material":0
				}
			]
		}
	],
	"textures":[
		{
			"sampler":0,
			"source":0
		}
	],
	"images":[
		{
			"mimeType":"image/png",
			"name":"Glove_Material_baseColor",
			"uri":"Glove_Material_baseColor.png"
		}
	],
	"accessors":[
		{
			"bufferView":0,
			"componentType":5126,
			"count":8372,
			"max":[
				288.2978820800781,
				496.7622375488281,
				352.2355651855469
			],
			"min":[
				-314.1300964355469,
				-509.9940185546875,
				-348.7184143066406
			],
			"type":"VEC3"
		},
		{
			"bufferView":1,
			"componentType":5126,
			"count":8372,
			"type":"VEC3"
		},
		{
			"bufferView":2,
			"componentType":5126,
			"count":8372,
			"type":"VEC2"
		},
		{
			"bufferView":3,
			"componentType":5123,
			"count":12192,
			"type":"SCALAR"
		}
	],
	"bufferViews":[
		{
			"buffer":0,
			"byteLength":100464,
			"byteOffset":0,
			"target":34962
		},
		{
			"buffer":0,
			"byteLength":100464,
			"byteOffset":100464,
			"target":34962
		},
		{
			"buffer":0,
			"byteLength":66976,
			"byteOffset":200928,
			"target":34962
		},
		{
			"buffer":0,
			"byteLength":24384,
			"byteOffset":267904,
			"target":34963
		}
	],
	"samplers":[
		{
			"magFilter":9729,
			"minFilter":9987
		}
	],
	"buffers":[
		{
			"byteLength":292288,
			"uri":"gloveRight.bin"
		}
	]
}
