<svg xmlns="http://www.w3.org/2000/svg" xmlns:xlink="http://www.w3.org/1999/xlink" xml:space="preserve" version="1.1" x="0px" y="0px" viewBox="0 0 100 125"><path d="M15,65L15,20L45,20L45,45L50,45L50,15C50,12.239,47.761,10,45,10L15,10C12.239,10,10,12.239,10,15L10,70C10,72.761,12.239,75,15,75L20,75L20,65L15,65Z" fill="white" stroke="none"/><path d="M85,50L80,50L30,50C27.239,50,25,52.239,25,55L25,85C25,87.761,27.239,90,30,90L85,90C87.761,90,90,87.761,90,85L90,55C90,52.239,87.761,50,85,50ZM80,85L35,85L35,55L80,55L80,85Z" fill="white" stroke="none"/><path d="M80,35C80,23.972,71.028,15,60,15L60,20C68.271,20,75,26.729,75,35L67.5,35L77.5,45L87.5,35L80,35Z" fill="white" stroke="none"/></svg>